<svg width="300" height="300" viewBox="0 0 300 300" fill="none" xmlns="http://www.w3.org/2000/svg">
<rect width="300" height="300" rx="50" fill="#084887"/>
<path d="M98.5303 191L74.3082 170.006H69.0839C54.1401 170.006 45.0279 165.246 45.0279 150.11C45.0279 132.534 54.1401 129.238 79.411 129.238C104.682 129.238 113.794 132.534 113.794 150.11C113.794 156.213 112.215 160.851 108.327 163.781H135.299C137.607 159.997 138.822 155.237 138.822 150.11C138.822 120.938 118.897 108 79.411 108C39.8037 108 20 120.938 20 150.11C20 176.963 41.5046 191 69.0839 191H98.5303Z" fill="white"/>
<path d="M280 191L229.215 117.154C225.692 112.028 220.71 108 213.178 108C205.281 108 200.299 112.394 196.898 117.154L144.776 191H174.542L212.692 136.806L227.271 158.41C227.524 158.78 227.784 159.159 228.048 159.546L228.076 159.587C230.599 163.277 233.56 167.608 235.533 170.25C231.645 170.006 225.935 170.006 221.075 170.006H200.664L185.477 191H280Z" fill="white"/>
<path fill-rule="evenodd" clip-rule="evenodd" d="M65.0746 155.969C65.0746 155.969 84.9883 156.585 96.9219 160.529C116.551 167.016 140.28 191 140.28 191H108.327L65.0746 155.969ZM80.7381 161.43C80.7381 161.43 83.3185 161.638 88.5794 162.969C97.233 165.16 100.388 168.327 100.388 168.327L92.5 168.327L80.7381 161.43ZM109.319 174.934H101.431L111.379 182.654H119.267L109.319 174.934Z" fill="white"/>
</svg>
