<svg xmlns="http://www.w3.org/2000/svg" fill="none" viewBox="0 0 207 46"><path fill="#3D40D5" fill-rule="evenodd" d="M27.84 26.909H14.887c-1.2 0-2.159-1.01-2.159-2.273 0-1.262.96-2.273 2.16-2.273H27.84c1.2 0 2.159 1.01 2.159 2.273s-.96 2.273-2.16 2.273m0 12.728H14.887c-1.2 0-2.159-1.01-2.159-2.273s.96-2.273 2.16-2.273H27.84c1.2 0 2.159 1.01 2.159 2.273s-.96 2.273-2.16 2.273m-13.067-6.363h4.09c1.137 0 2.046-1.01 2.046-2.273s-.91-2.273-2.046-2.273h-4.09c-1.137 0-2.046 1.01-2.046 2.273s.91 2.273 2.046 2.273" clip-rule="evenodd"></path><path fill="#141416" fill-rule="evenodd" d="M10.343 20.546h12.954c1.2 0 2.16-1.01 2.16-2.273S24.496 16 23.296 16H10.343c-1.2 0-2.16 1.01-2.16 2.273s.96 2.273 2.16 2.273m0 25.454h12.954c1.2 0 2.16-1.01 2.16-2.273s-.96-2.273-2.16-2.273H10.343c-1.2 0-2.16 1.01-2.16 2.273S9.144 46 10.344 46M8.789 26.909H6.67c-1.18 0-2.122-1.01-2.122-2.273 0-1.262.943-2.273 2.121-2.273H8.79c1.179 0 2.122 1.01 2.122 2.273s-.943 2.273-2.122 2.273m-6.607 6.365h6.545c1.212 0 2.182-1.01 2.182-2.273s-.97-2.273-2.182-2.273H2.182C.97 28.728 0 29.738 0 31.001s.97 2.273 2.182 2.273m30.182 0h-6.546c-1.212 0-2.182-1.01-2.182-2.273s.97-2.273 2.182-2.273h6.546c1.212 0 2.181 1.01 2.181 2.273s-.97 2.273-2.181 2.273M6.668 39.636H8.79c1.179 0 2.122-1.01 2.122-2.272 0-1.263-.943-2.273-2.122-2.273H6.67c-1.18 0-2.122 1.01-2.122 2.273 0 1.262.943 2.273 2.121 2.273" clip-rule="evenodd"></path><path fill="#141416" d="M45 17.599q0-.162.08-.253a.3.3 0 0 1 .242-.1h7.264q.16 0 .249.1a.4.4 0 0 1 .087.268v1.903a.43.43 0 0 1-.087.254q-.088.114-.256.115h-4.74v1.895h3.657q.139 0 .227.07.095.068.095.23v1.657q0 .107-.08.207t-.235.1h-3.665v1.957h4.916q.33 0 .33.353v1.934q0 .076-.059.138-.03.215-.3.215h-7.403a.34.34 0 0 1-.234-.077Q45 28.481 45 28.312zM63.68 17.584q0-.14.081-.238.08-.1.241-.1h2.393q.102 0 .212.053a.47.47 0 0 1 .19.185q.93 1.573 1.843 3.1.915 1.527 1.851 3.1v-6.147a.38.38 0 0 1 .117-.214.3.3 0 0 1 .205-.077h2.085q.154 0 .256.092.102.084.102.245v10.76q0 .153-.087.23a.38.38 0 0 1-.242.069h-2.333a.24.24 0 0 1-.169-.07 1.2 1.2 0 0 1-.153-.183l-1.924-3.339q-.951-1.65-1.931-3.338v6.592q0 .169-.074.254-.072.084-.263.084h-2.078q-.168 0-.248-.092a.4.4 0 0 1-.073-.238zM91.272 20.461a3.1 3.1 0 0 0-.798-.43 2.7 2.7 0 0 0-.907-.153q-.606 0-1.112.246a2.7 2.7 0 0 0-.87.652 3.1 3.1 0 0 0-.563.974 3.4 3.4 0 0 0-.205 1.182q0 .63.205 1.182.204.553.563.967.366.407.87.645.505.237 1.112.238.257 0 .505-.039.256-.038.541-.1v-2.01q0-.146.08-.238.082-.1.242-.1h1.99a.4.4 0 0 1 .234.092.29.29 0 0 1 .124.246v3.714q0 .206-.212.338-.344.245-.76.422a6 6 0 0 1-.871.291 7 7 0 0 1-.922.17 7 7 0 0 1-.9.06 5.35 5.35 0 0 1-2.823-.797 5.8 5.8 0 0 1-1.134-.914 6.2 6.2 0 0 1-.87-1.181 6 6 0 0 1-.761-2.963 6.05 6.05 0 0 1 1.63-4.159q.513-.537 1.135-.913a5.4 5.4 0 0 1 1.331-.591 5.2 5.2 0 0 1 1.492-.215q.879 0 1.654.26a5.5 5.5 0 0 1 1.47.738q.124.076.19.207.066.122-.029.284l-1.185 1.796a.6.6 0 0 1-.19.168q-.096.039-.256-.069M104.183 17.599a.37.37 0 0 1 .081-.253.3.3 0 0 1 .241-.1h7.264q.16 0 .249.1a.4.4 0 0 1 .088.268v1.903q0 .13-.088.254a.3.3 0 0 1-.256.115h-4.741v1.895h3.658q.139 0 .227.07.095.068.095.23v1.657a.33.33 0 0 1-.08.207q-.08.1-.235.1h-3.665v1.957h4.916q.33 0 .33.353v1.934q0 .076-.059.138-.029.215-.3.215h-7.403a.34.34 0 0 1-.234-.077q-.088-.084-.088-.253zM122.864 17.584q0-.14.08-.238.08-.1.242-.1h2.392q.102 0 .212.053a.5.5 0 0 1 .19.185 612 612 0 0 0 1.843 3.1q.915 1.527 1.851 3.1v-6.147a.4.4 0 0 1 .117-.214.3.3 0 0 1 .205-.077h2.085q.153 0 .256.092.102.084.102.245v10.76q0 .153-.087.23a.38.38 0 0 1-.242.069h-2.333a.24.24 0 0 1-.169-.07 1.2 1.2 0 0 1-.153-.183l-1.924-3.339a1348 1348 0 0 0-1.931-3.338v6.592q0 .169-.074.254-.072.084-.263.084h-2.077q-.17 0-.249-.092a.4.4 0 0 1-.073-.238zM143.63 17.584q0-.14.08-.238.08-.1.241-.1h2.151a.4.4 0 0 1 .234.092.29.29 0 0 1 .125.245v10.721q0 .338-.359.338h-2.151q-.321 0-.321-.338zM159.913 22.948q0 .635.205 1.19.204.551.57.966.374.406.878.645.505.23 1.112.23a2.65 2.65 0 0 0 1.112-.23q.512-.238.878-.645.373-.414.578-.967t.205-1.19q0-.629-.205-1.181a3 3 0 0 0-.578-.975 2.65 2.65 0 0 0-.878-.652 2.6 2.6 0 0 0-1.112-.238q-.607 0-1.112.238a2.8 2.8 0 0 0-.878.652 3 3 0 0 0-.57.975 3.4 3.4 0 0 0-.205 1.182m-2.824.007a6.04 6.04 0 0 1 .761-2.962q.366-.66.87-1.197a5.5 5.5 0 0 1 1.134-.913 5.4 5.4 0 0 1 2.824-.806q.768 0 1.485.215.717.207 1.339.59.621.377 1.134.914t.87 1.197q.366.652.563 1.405.205.744.205 1.557 0 .815-.205 1.566a5.94 5.94 0 0 1-1.433 2.578 6 6 0 0 1-1.134.914 5.39 5.39 0 0 1-5.648 0 6 6 0 0 1-1.134-.914 5.94 5.94 0 0 1-1.433-2.578 6.1 6.1 0 0 1-.198-1.566M181.647 24.091q0 .568.147.967.153.392.395.645.248.245.57.36.33.116.681.116.365 0 .687-.131.33-.138.571-.399.249-.27.388-.66.146-.39.146-.898v-6.507q0-.14.088-.238a.33.33 0 0 1 .248-.1h2.136q.169 0 .264.107a.33.33 0 0 1 .095.23v6.47q0 1.342-.38 2.256-.374.913-1.01 1.473a3.9 3.9 0 0 1-1.478.799 6.4 6.4 0 0 1-1.755.237 6.3 6.3 0 0 1-1.763-.245 3.9 3.9 0 0 1-1.478-.814q-.636-.568-1.017-1.473-.373-.913-.373-2.233v-6.47a.36.36 0 0 1 .08-.23.27.27 0 0 1 .213-.107h2.194q.11 0 .227.1.124.091.124.238zM200.337 24.966q.123.108.314.292.197.176.446.353.373.261.739.406.366.147.768.146.373 0 .622-.084.257-.093.402-.238a.8.8 0 0 0 .205-.338q.066-.192.066-.407 0-.237-.175-.422a1.7 1.7 0 0 0-.417-.337 3.2 3.2 0 0 0-.52-.246 12 12 0 0 0-.468-.176 11 11 0 0 1-1.536-.691 5 5 0 0 1-1.098-.829 3.2 3.2 0 0 1-.658-1.005 3.3 3.3 0 0 1-.219-1.228q0-.714.27-1.297.279-.583.783-.998a3.7 3.7 0 0 1 1.229-.637 5.2 5.2 0 0 1 1.602-.23q.666 0 1.273.161.615.154 1.207.5.249.152.468.322.227.16.395.314t.264.292q.102.138.102.238a.35.35 0 0 1-.051.184 1 1 0 0 1-.139.192l-1.119 1.25q-.124.132-.249.131a.32.32 0 0 1-.19-.061 3 3 0 0 1-.183-.154l-.066-.061a5 5 0 0 0-.329-.269 2.5 2.5 0 0 0-.381-.245 2.2 2.2 0 0 0-.431-.185 1.4 1.4 0 0 0-.461-.076q-.241 0-.454.046a1.2 1.2 0 0 0-.373.13.7.7 0 0 0-.256.246.65.65 0 0 0-.095.36q0 .216.102.377.103.153.308.291.204.13.504.253.308.116.71.254.775.268 1.427.568.657.291 1.133.698.476.399.739.96.271.56.271 1.357 0 .845-.329 1.535-.33.683-.907 1.167a4.2 4.2 0 0 1-1.346.752 5.2 5.2 0 0 1-1.668.26 4.6 4.6 0 0 1-1.654-.314 6.3 6.3 0 0 1-1.514-.844 4 4 0 0 1-.497-.437l-.315-.346-.022-.023q-.008-.015-.014-.015l-.015-.016q-.008-.015-.015-.015l-.014-.015q-.17-.192-.169-.307 0-.13.169-.292l1.265-1.266q.155-.115.249-.115.066 0 .139.046t.176.138"></path><path fill="#000" d="M46.167 41.25q0 .558.161 1.04.167.483.482.84.323.353.78.56a2.6 2.6 0 0 0 1.049.2q.63-.001 1.102-.206.47-.207.774-.559.31-.36.458-.84.155-.483.155-1.035v-4.862q0-.105.078-.182a.3.3 0 0 1 .202-.076h.572q.113 0 .208.07.096.07.096.188v5.02a3.65 3.65 0 0 1-.286 1.458q-.286.66-.786 1.135-.495.47-1.162.735-.66.264-1.411.264-.75 0-1.412-.282a3.8 3.8 0 0 1-1.161-.77q-.495-.494-.78-1.146Q45 42.149 45 41.408v-5.02a.27.27 0 0 1 .066-.17.23.23 0 0 1 .184-.088h.637q.09 0 .185.076t.095.182zM67.785 44.86q-.13 0-.226-.13l-5.2-6.878v6.749q0 .258-.273.258h-.602q-.261 0-.262-.259v-8.2q0-.117.072-.194a.25.25 0 0 1 .19-.076h.798q.156 0 .25.129l5.069 6.648v-6.56q.034-.217.262-.217h.601a.3.3 0 0 1 .197.07q.095.07.095.188V44.6q0 .26-.292.26zM77.79 36.388q0-.105.066-.182a.26.26 0 0 1 .197-.076h.62q.106 0 .19.07.083.07.083.188V44.6q0 .26-.274.26h-.62q-.261 0-.261-.26zM88.61 36.347q.083.224.232.594.15.364.333.823a687 687 0 0 0 1.65 4.009l.316.77.22.517q.072-.182.208-.517.144-.335.322-.77a355 355 0 0 0 .81-1.987l.423-1.046.732-1.8q.15-.37.233-.593a.4.4 0 0 1 .119-.159.3.3 0 0 1 .196-.058h.626q.28 0 .28.205a.2.2 0 0 1-.006.047l-.012.053-.012.059-3.407 8.148-.03.07a.4.4 0 0 1-.047.07.3.3 0 0 1-.09.054.4.4 0 0 1-.148.023h-.394a.4.4 0 0 1-.148-.023.3.3 0 0 1-.084-.053.4.4 0 0 1-.047-.07l-.03-.071-3.437-8.148-.012-.041a.5.5 0 0 1-.011-.118q-.001-.205.274-.205h.63q.12 0 .197.058.078.06.114.16M109.724 36.13q.274 0 .274.282v.582a.3.3 0 0 1-.071.194q-.066.082-.215.082h-4.8v2.416h3.776a.28.28 0 0 1 .185.065q.077.059.077.206v.6q0 .105-.065.187-.066.083-.197.083h-3.776v2.892h4.824q.274 0 .274.276v.605q0 .26-.262.26h-5.729q-.262 0-.262-.248V36.4q0-.27.262-.27zM118.557 36.412q0-.282.262-.282h3.437q.596 0 1.107.223a2.78 2.78 0 0 1 1.269 4.062q-.209.324-.5.582-.292.254-.649.423l1.572 3.18v.077q0 .182-.221.182h-.72q-.185 0-.286-.217l-1.429-2.963a1 1 0 0 1-.108.006q-.053 0-.16.006h-2.418v2.91q0 .258-.274.258h-.62q-.262 0-.262-.259zm5.372 2.498a1.5 1.5 0 0 0-.131-.623q-.125-.3-.351-.53a1.6 1.6 0 0 0-.53-.363 1.55 1.55 0 0 0-.661-.142h-2.543v3.316h2.567q.35 0 .655-.135a1.65 1.65 0 0 0 .869-.894q.126-.3.125-.629M138.967 38.034a4 4 0 0 1-.274-.206 3.6 3.6 0 0 0-.47-.311q-.275-.159-.62-.282a2.1 2.1 0 0 0-.744-.13 2.6 2.6 0 0 0-.81.112 1.6 1.6 0 0 0-.56.3q-.22.181-.328.417a1.15 1.15 0 0 0-.101.465q0 .33.22.552.22.225.584.388.363.165.822.3.465.129.941.276.482.147.941.33.465.182.828.452.364.27.583.647.22.375.221.911 0 .617-.262 1.123-.256.5-.709.858a3.3 3.3 0 0 1-1.054.547q-.608.195-1.304.194-.465 0-.923-.106a4.3 4.3 0 0 1-.876-.294 4.3 4.3 0 0 1-.78-.482 3.7 3.7 0 0 1-.649-.647.3.3 0 0 1-.078-.188q.006-.093.108-.176l.47-.388q.1-.082.197-.07.095.005.172.1l.078.076q.25.276.565.482.322.2.638.335.322.128.613.194.292.064.494.064a3 3 0 0 0 .745-.094q.38-.093.697-.288.315-.194.518-.488.202-.3.202-.7a.82.82 0 0 0-.202-.564 1.7 1.7 0 0 0-.536-.405 4.5 4.5 0 0 0-.798-.312 69 69 0 0 0-.971-.294 10 10 0 0 1-1.227-.429 3.8 3.8 0 0 1-.846-.5 1.8 1.8 0 0 1-.482-.61 1.8 1.8 0 0 1-.155-.765q0-.535.215-.976.22-.447.619-.77a2.9 2.9 0 0 1 .959-.5A4.1 4.1 0 0 1 136.9 36q.376 0 .781.094t.786.265q.387.165.72.4.34.228.584.511a.27.27 0 0 1 .083.188q.006.095-.089.182l-.423.4a.26.26 0 0 1-.196.082.28.28 0 0 1-.179-.088M148.955 36.388q0-.105.065-.182a.26.26 0 0 1 .197-.076h.619q.107 0 .191.07.083.07.083.188V44.6q0 .26-.274.26h-.619q-.262 0-.262-.26zM164.937 36.13q.107 0 .191.064a.26.26 0 0 1 .101.194v.594a.32.32 0 0 1-.072.206q-.071.082-.22.082h-2.477v7.319q0 .105-.072.188a.25.25 0 0 1-.202.082h-.602a.28.28 0 0 1-.191-.076.25.25 0 0 1-.083-.194V37.27h-2.489a.28.28 0 0 1-.197-.07q-.077-.072-.077-.218v-.594q0-.117.077-.188a.28.28 0 0 1 .197-.07zM172.949 36.412q-.084-.125-.072-.2.018-.082.155-.082h.965l.089.011a.14.14 0 0 1 .066.03.2.2 0 0 1 .059.064l.078.13 2.132 3.65h.018l2.173-3.691a.4.4 0 0 1 .119-.147.34.34 0 0 1 .143-.047h.995q.13 0 .131.105 0 .054-.066.153-.369.582-.732 1.188-.363.6-.727 1.21-.357.606-.726 1.212-.364.6-.739 1.181v3.398q0 .282-.262.282h-.637q-.25 0-.25-.282v-3.368z"></path><path fill="#302EAD" d="M31.293 8.123 16.647 0v11.368h8.794zM3.718 8.125h1.716v10.838H3.718z"></path><path fill="#056AE7" d="m2 8.124 5.851 3.245h8.795V0zM16.647 8.202v9.526h8.915v-6.14s-3.008-3.386-8.915-3.386"></path><path fill="#3788EC" d="M7.732 11.588v6.14h8.915V8.202c-5.908 0-8.915 3.386-8.915 3.386"></path></svg>