<svg fill="none" height="197" viewBox="0 0 1322 197" width="1322" xmlns="http://www.w3.org/2000/svg" xmlns:xlink="http://www.w3.org/1999/xlink"><clipPath id="a"><path d="m0 0h1322v197h-1322z"/></clipPath><g clip-path="url(#a)"><path d="m1264.49 160.259c31.63 0 57.27-25.636 57.27-57.261 0-31.624-25.64-57.2606-57.27-57.2606-31.62 0-57.26 25.6366-57.26 57.2606 0 31.625 25.64 57.261 57.26 57.261z" fill="#0f0"/><g fill="#000"><path d="m325.401 157.994h-22.582c-.659 0-1.193-.534-1.193-1.193v-155.07596c0-.65874.534-1.192752 1.193-1.192752h22.582c.659 0 1.193.534012 1.193 1.192752v155.07596c0 .659-.534 1.193-1.193 1.193z"/><path d="m448.753 108.956h-81.266c-.74 0-1.316.673-1.182 1.401 3.114 16.936 15.084 27.167 32.382 27.167 11.881 0 22.726-4.979 28.15-12.946.37-.543 1.091-.713 1.644-.359l18.059 11.566c.538.344.722 1.057.399 1.607-8.368 14.254-26.494 22.852-48.702 22.852-31.717 0-57.136-24.969-57.136-57.811 0-31.942 24.969-56.6864 56.686-56.6864 29.693 0 52.862 22.9441 52.862 52.4121 0 2.6493-.185 6.5923-.722 9.8193-.094.568-.597.978-1.174.978zm-25.775-19.1203c.718 0 1.293-.6329 1.186-1.3428-1.943-13.0056-13.152-22.0516-27.727-22.0516-14.533 0-24.883 8.367-29.033 21.8735-.232.7577.354 1.5209 1.147 1.5209z"/><path d="m575.59 49.1889v107.6121c0 .659-.534 1.193-1.192 1.193h-22.584c-.659 0-1.193-.534-1.193-1.193v-9.886c0-1.134-1.412-1.612-2.13-.735-6.799 8.302-19.88 14.064-32.961 14.064-29.692 0-52.862-25.194-52.862-57.362 0-31.9418 23.17-57.1354 52.862-57.1354 13.081 0 26.162 5.761 32.961 14.0623.718.877 2.13.3989 2.13-.7348v-9.8852c0-.6588.534-1.1928 1.193-1.1928h22.584c.658 0 1.192.534 1.192 1.1928zm-24.969 70.4561v-33.0816c0-.2141-.054-.4254-.16-.611-5.472-9.5241-17.284-16.3621-29.757-16.3621-18.895 0-33.292 14.1719-33.292 33.2917 0 19.12 14.397 33.518 33.292 33.518 12.246 0 24.271-6.833 29.75-16.134.111-.188.167-.403.167-.621z"/><path d="m706.712 103.108c0 31.942-23.17 57.136-52.862 57.136-13.082 0-26.163-5.762-32.962-14.064-.718-.877-2.13-.399-2.13.735v48.577c0 .659-.534 1.193-1.193 1.193h-22.582c-.659 0-1.193-.534-1.193-1.193v-146.3031c0-.6588.534-1.1928 1.193-1.1928h22.582c.659 0 1.193.534 1.193 1.1928v9.7242c0 1.1279 1.4 1.6098 2.123.7439 6.797-8.1451 19.882-13.9104 32.969-13.9104 29.692 0 52.862 25.1936 52.862 57.3614zm-24.744 0c0-19.3458-14.397-33.5177-33.292-33.5177-12.246 0-24.271 6.8328-29.751 16.1335-.111.1882-.167.4034-.167.6219v33.0813c0 .214.054.425.161.611 5.472 9.524 17.283 16.362 29.757 16.362 18.895 0 33.292-14.172 33.292-33.292z"/><path d="m709.307 47.9961h24.201c.517 0 .975.3327 1.134.8242l21.824 67.1677c.351 1.082 1.872 1.105 2.257.036l24.18-67.2388c.171-.4734.62-.7891 1.123-.7891h18.57c.502 0 .951.3142 1.122.786l24.4 67.2599c.387 1.067 1.905 1.041 2.255-.038l21.83-67.1837c.16-.4915.618-.8242 1.134-.8242h24.202c.827 0 1.403.8211 1.121 1.5987l-38.951 107.6122c-.171.473-.619.787-1.121.787h-18.351c-.501 0-.948-.313-1.12-.783l-24.687-67.4634c-.382-1.0438-1.858-1.0438-2.24 0l-24.687 67.4634c-.172.47-.62.783-1.121.783h-18.124c-.502 0-.951-.314-1.122-.787l-38.951-107.6122c-.281-.7776.295-1.5987 1.122-1.5987z"/><path d="m992.408 103.108c0 32.617-24.969 57.136-57.137 57.136s-56.911-24.519-56.911-57.136 24.744-57.3614 56.911-57.3614 57.137 24.7444 57.137 57.3614zm-89.304 0c0 18.67 13.946 33.066 32.167 33.066s32.392-14.396 32.392-33.066c0-18.8955-14.171-33.292-32.392-33.292s-32.167 14.3965-32.167 33.292z"/><path d="m1071.32 48.4675-1.41 21.1698c-.05.761-.79 1.2847-1.52 1.0632-3.58-1.0872-7.86-1.7851-11.63-1.7851-8.26 0-20.07 6.6524-25.97 18.6359-.08.1695-.12.358-.12.5468v68.7029c0 .659-.54 1.193-1.19 1.193h-22.59c-.66 0-1.19-.534-1.19-1.193v-107.6121c0-.6588.53-1.1928 1.19-1.1928h22.59c.65 0 1.19.534 1.19 1.1928v9.7494c0 1.1444 1.47 1.6377 2.14.7117 6.24-8.5874 16.99-13.9034 25.98-13.9034 4.71 0 8.67.5594 11.72 1.5079.52.1615.85.6704.81 1.213z"/></g><path d="m249.418 47.9961h-88.759c-5.865 0-10.62 4.7542-10.62 10.6193v88.7596c0 5.865 4.755 10.619 10.62 10.619h88.759c5.865 0 10.619-4.754 10.619-10.619v-88.7596c0-5.8651-4.754-10.6193-10.619-10.6193z" fill="#5da7ff"/><path d="m58.2571 160.259c31.6244 0 57.2609-25.636 57.2609-57.261 0-31.6241-25.6365-57.2607-57.2609-57.2607s-57.261006 25.6366-57.261006 57.2607c0 31.625 25.636606 57.261 57.261006 57.261z" fill="#d1bbff"/><path d="m1136.61 93.2023c-.73-.2952-.93-1.2193-.39-1.782l40.2-41.5609c.68-.6987.18-1.8633-.79-1.8633h-28.69c-.56 0-1.09.2329-1.47.6424l-35.83 38.7612c-.68.735-1.91.2542-1.91-.7467v-85.05949c0-.607574-.49-1.100102-1.1-1.100102h-22.77c-.6 0-1.1.492528-1.1 1.100102v155.30449c0 .607.5 1.099 1.1 1.099h22.77c.61 0 1.1-.492 1.1-1.099v-44.741c0-.608.49-1.1 1.1-1.1h1.49c24.42 0 44.35 21.577 44.93 45.859.01.598.49 1.078 1.09 1.078h22.8c.62 0 1.12-.504 1.11-1.118-.45-28.789-18.4-53.395-43.64-63.6737z" fill="#000"/><path d="m1299.97 86.8338c0 .5425-.44.9732-.98.9917-9.2.3164-18.69 5.0938-26.17 13.2165-7.11 7.72-11.46 17.336-11.77 25.925-.02.542-.45.974-.99.974h-13.83c-.53 0-.97-.442-1-.979-.58-13.51-14.33-15.994-16.84-15.994-.51 0-.9-.48-.9-.995v-11.0415c0-.5728.48-1.0254 1.05-1.0015 5.03.2105 12.17 1.9277 18.29 6.228 1.33.935 2.72 2.073 4.07 3.431.48.486 1.29.338 1.6-.276 8.48-17.2077 26.01-32.0124 46.44-32.4924.57-.0127 1.03.4488 1.03 1.0088z" fill="#fff"/></g></svg>